<mxfile host="app.diagrams.net" modified="2024-02-19T01:56:47.631Z" agent="Mozilla/5.0 (Windows NT 10.0; Win64; x64) AppleWebKit/537.36 (KHTML, like Gecko) Chrome/121.0.0.0 Safari/537.36" etag="aqK9WVftJ6V9IPf-ZIQV" version="23.1.5" type="github">
  <diagram name="Page-1" id="2YBvvXClWsGukQMizWep">
    <mxGraphModel dx="1195" dy="615" grid="1" gridSize="10" guides="1" tooltips="1" connect="1" arrows="1" fold="1" page="1" pageScale="1" pageWidth="850" pageHeight="1100" math="0" shadow="0">
      <root>
        <mxCell id="0" />
        <mxCell id="1" parent="0" />
        <mxCell id="1fV30mokUrKp74guWzHp-1" value="&lt;p style=&quot;line-height: 40%;&quot;&gt;&lt;/p&gt;&lt;h1 style=&quot;line-height: 40%;&quot;&gt;&lt;span style=&quot;background-color: initial;&quot;&gt;CustomJsonUsernamePasswordAuthentication&lt;/span&gt;&lt;/h1&gt;&lt;h1 style=&quot;line-height: 40%;&quot;&gt;&lt;span style=&quot;font-size: 12px; font-weight: 400;&quot;&gt;- &quot;/login&quot;으로 POST 요청이 오면 인증 절차 실행&lt;/span&gt;&lt;/h1&gt;&lt;div style=&quot;line-height: 40%;&quot;&gt;&lt;span style=&quot;font-size: 12px; font-weight: 400;&quot;&gt;&lt;br&gt;&lt;/span&gt;&lt;/div&gt;&lt;div style=&quot;line-height: 120%;&quot;&gt;- &lt;b&gt;Authenticate()&lt;/b&gt;&lt;/div&gt;&lt;div style=&quot;line-height: 120%;&quot;&gt;&amp;nbsp; - application.json의 타입으로 입력 시 확인&lt;/div&gt;&lt;p&gt;&lt;/p&gt;" style="text;html=1;spacing=5;spacingTop=-20;whiteSpace=wrap;overflow=hidden;rounded=0;" vertex="1" parent="1">
          <mxGeometry x="160" y="130" width="550" height="120" as="geometry" />
        </mxCell>
      </root>
    </mxGraphModel>
  </diagram>
</mxfile>
